<svg width="48" height="48" viewBox="0 0 25 25" fill="none" xmlns="http://www.w3.org/2000/svg">
<path d="M19.9173 14.72C20.0573 16.35 18.7673 17.75 17.1273 17.75H6.47732C5.03732 17.75 3.77732 16.57 3.66732 15.14L3.12733 7.64001C3.00733 5.98001 4.26733 4.63 5.93733 4.63H18.8473" stroke="#6B6B6B" stroke-miterlimit="10" stroke-linecap="round" stroke-linejoin="round"/>
<path d="M22.667 2.75H20.927C19.847 2.75 18.997 3.68 19.087 4.75L19.587 10.8" stroke="#6B6B6B" stroke-miterlimit="10" stroke-linecap="round" stroke-linejoin="round"/>
<path d="M8.41699 22.75C7.72664 22.75 7.16699 22.1904 7.16699 21.5C7.16699 20.8096 7.72664 20.25 8.41699 20.25C9.10735 20.25 9.66699 20.8096 9.66699 21.5C9.66699 22.1904 9.10735 22.75 8.41699 22.75Z" stroke="#6B6B6B" stroke-miterlimit="10" stroke-linecap="round" stroke-linejoin="round"/>
<path d="M16.417 22.75C15.7266 22.75 15.167 22.1904 15.167 21.5C15.167 20.8096 15.7266 20.25 16.417 20.25C17.1073 20.25 17.667 20.8096 17.667 21.5C17.667 22.1904 17.1073 22.75 16.417 22.75Z" stroke="#6B6B6B" stroke-miterlimit="10" stroke-linecap="round" stroke-linejoin="round"/>
<path d="M15.667 8.75H3.66699" stroke="#6B6B6B" stroke-miterlimit="10" stroke-linecap="round" stroke-linejoin="round"/>
</svg>
