<svg width="48" height="48" viewBox="0 0 25 25" fill="none" xmlns="http://www.w3.org/2000/svg">
<path d="M5.33301 10.75H7.33301C9.33301 10.75 10.333 9.75 10.333 7.75V5.75C10.333 3.75 9.33301 2.75 7.33301 2.75H5.33301C3.33301 2.75 2.33301 3.75 2.33301 5.75V7.75C2.33301 9.75 3.33301 10.75 5.33301 10.75Z" stroke="#6B6B6B" stroke-miterlimit="10" stroke-linecap="round" stroke-linejoin="round"/>
<path d="M19.333 2.75H17.333C15.333 2.75 14.333 3.75 14.333 5.75V7.75C14.333 9.75 15.333 10.75 17.333 10.75H19.333C21.333 10.75 22.333 9.75 22.333 7.75V5.75" stroke="#6B6B6B" stroke-miterlimit="10" stroke-linecap="round" stroke-linejoin="round"/>
<path d="M17.333 22.75H19.333C21.333 22.75 22.333 21.75 22.333 19.75V17.75C22.333 15.75 21.333 14.75 19.333 14.75H17.333C15.333 14.75 14.333 15.75 14.333 17.75V19.75C14.333 21.75 15.333 22.75 17.333 22.75Z" stroke="#6B6B6B" stroke-miterlimit="10" stroke-linecap="round" stroke-linejoin="round"/>
<path d="M5.33301 22.75H7.33301C9.33301 22.75 10.333 21.75 10.333 19.75V17.75C10.333 15.75 9.33301 14.75 7.33301 14.75H5.33301C3.33301 14.75 2.33301 15.75 2.33301 17.75V19.75" stroke="#6B6B6B" stroke-miterlimit="10" stroke-linecap="round" stroke-linejoin="round"/>
</svg>
