<svg width="48" height="48" viewBox="0 0 48 49" fill="none" xmlns="http://www.w3.org/2000/svg">
<path d="M32.0402 19.5701L26.2802 15.5401C24.7102 14.4401 22.3002 14.5001 20.7902 15.6701L15.7802 19.5801C14.7802 20.3601 13.9902 21.9601 13.9902 23.2201V30.1201C13.9902 32.6701 16.0602 34.7501 18.6102 34.7501H29.3902C31.9402 34.7501 34.0102 32.6801 34.0102 30.1301V23.3501C34.0102 22.0001 33.1402 20.3401 32.0402 19.5701Z" fill="#80AD01"/>
<path d="M24 31.5C23.59 31.5 23.25 31.16 23.25 30.75V27.75C23.25 27.34 23.59 27 24 27C24.41 27 24.75 27.34 24.75 27.75V30.75C24.75 31.16 24.41 31.5 24 31.5Z" fill="#CCE094"/>
</svg>
