<svg width="48" height="48" viewBox="0 0 48 49" fill="none" xmlns="http://www.w3.org/2000/svg">
<path d="M27.6802 16.71C28.1602 17.42 28.4402 18.27 28.4402 19.19C28.4302 21.59 26.5402 23.54 24.1602 23.62C24.0602 23.61 23.9402 23.61 23.8302 23.62C21.6202 23.55 19.8302 21.86 19.5902 19.7C19.3002 17.13 21.4102 14.75 23.9902 14.75" stroke="#6B6B6B" stroke-linecap="round" stroke-linejoin="round"/>
<path d="M18.9898 27.31C16.5698 28.93 16.5698 31.57 18.9898 33.18C21.7398 35.02 26.2498 35.02 28.9998 33.18C31.4198 31.56 31.4198 28.92 28.9998 27.31C26.2698 25.48 21.7598 25.48 18.9898 27.31Z" stroke="#6B6B6B" stroke-linecap="round" stroke-linejoin="round"/>
</svg>
