
<svg width="49" height="49" viewBox="0 0 49 49" fill="none" xmlns="http://www.w3.org/2000/svg">
<path fill-rule="evenodd" clip-rule="evenodd" d="M15.083 10.0712C10.076 11.5461 6.57388 16.0943 6.50114 21.3326C6.5 21.4148 6.5 21.5072 6.5 21.692V26.3384C6.70394 26.3382 6.9112 26.3796 7.10958 26.467C18.1813 31.3546 30.8194 31.3546 41.8912 26.467C42.0894 26.3796 42.2964 26.3382 42.5 26.3384V21.692C42.5 21.5072 42.5 21.4148 42.4988 21.3326C42.4262 16.0943 38.924 11.5462 33.917 10.0712C33.3616 9.88916 31.6784 9.56374 30.9064 9.42378C26.6664 8.70348 22.3338 8.70346 18.0938 9.42376C17.2845 9.57692 15.5494 9.92084 15.083 10.0712ZM20.5 24.3518C19.6716 24.3518 19 25.0188 19 25.8416C19 26.6646 19.6716 27.3316 20.5 27.3316H28.5C29.3284 27.3316 30 26.6646 30 25.8416C30 25.0188 29.3284 24.3518 28.5 24.3518H20.5Z" fill="#626754"/>
<path d="M18.2463 8.4835C18.8578 6.73298 20.533 5.47978 22.499 5.47978H26.499C28.4652 5.47978 30.1404 6.73298 30.7518 8.4835C30.8428 8.74376 30.887 9.0441 30.9054 9.42366C31.6774 9.56362 33.3606 9.88906 33.9162 10.0711V9.94906C33.9162 9.27202 33.893 8.38522 33.5862 7.50672C32.5688 4.59428 29.782 2.5 26.499 2.5H22.499C19.2161 2.5 16.4294 4.59428 15.412 7.50672C15.1051 8.38522 15.082 9.27202 15.082 9.94906V10.0711C15.5484 9.92074 17.2836 9.57682 18.0928 9.42364C18.1111 9.0441 18.1553 8.74376 18.2463 8.4835Z" fill="#626754" fill-opacity="0.57"/>
<path d="M42.5 29.4533C40.7 30.2171 38.8628 30.8613 37.0004 31.3859V33.7875C37.0004 34.6103 36.3288 35.2775 35.5004 35.2775C34.672 35.2775 34.0004 34.6103 34.0004 33.7875V32.1233C24.8452 34.0505 15.2365 33.1603 6.5 29.4531V32.5457C6.5 36.7531 9.44202 40.3959 13.5771 41.3085C20.7712 42.8965 28.2288 42.8965 35.423 41.3085C39.558 40.3959 42.5 36.7531 42.5 32.5457V29.4533Z" fill="#626754" fill-opacity="0.57"/>
</svg>
